<?xml version="1.0" encoding="utf-8"?>
<!-- Generator: Adobe Illustrator 28.0.0, SVG Export Plug-In . SVG Version: 6.00 Build 0)  -->
<svg version="1.1" id="Calque_1" xmlns="http://www.w3.org/2000/svg" xmlns:xlink="http://www.w3.org/1999/xlink" x="0px" y="0px"
	 viewBox="0 0 100 100" style="enable-background:new 0 0 100 100;" xml:space="preserve">
<style type="text/css">
	.st0{fill:none;stroke:#FFBA08;stroke-width:4;stroke-linecap:round;stroke-linejoin:round;stroke-miterlimit:10;}
	.st1{fill:#FFBA08;stroke:#FFBA08;stroke-width:4;stroke-linecap:round;stroke-linejoin:round;stroke-miterlimit:10;}
	.st2{fill:none;stroke:#FFBA08;stroke-width:4;stroke-miterlimit:10;}
</style>
<g>
	<g>
		<path class="st0" d="M44.36,45.23c-3.14-3.14-14.42-14.42-17.56-17.56"/>
		<path class="st0" d="M57.81,27.41C63.21,22,68.62,16.59,74.02,11.19C56.29-0.49,32.21,1.47,16.6,17.08S-0.96,56.76,10.71,74.5
			c4.89-4.89,11.2-11.2,16.09-16.09"/>
		<path class="st1" d="M88.56,25.73L25.25,89.04c17.74,11.67,41.81,9.7,57.41-5.9S100.23,43.47,88.56,25.73z"/>
	</g>
	<line class="st0" x1="95.08" y1="4.65" x2="61.78" y2="37.96"/>
	<line class="st0" x1="38.67" y1="61.07" x2="5.36" y2="94.38"/>
	<circle class="st2" cx="49.63" cy="50.11" r="0.91"/>
	<line class="st0" x1="49.72" y1="25.92" x2="49.73" y2="42.09"/>
	<line class="st0" x1="24.97" y1="50.05" x2="41.6" y2="50.04"/>
</g>
</svg>
