<svg width="1000" height="1000" viewBox="0 0 1000 1000" fill="none" xmlns="http://www.w3.org/2000/svg">
<g clip-path="url(#clip0_5_2)">
<path d="M383.948 93.3V69C383.948 67.08 383.588 65.82 382.868 65.22C382.148 64.5 380.828 64.14 378.908 64.14H364.328C357.608 64.14 352.808 62.58 349.928 59.46C347.168 56.22 345.788 51.78 345.788 46.14V18.24C345.788 12.6 347.288 8.21999 350.288 5.1C353.288 1.97999 358.268 0.419992 365.228 0.419992H385.028C391.868 0.419992 396.788 1.97999 399.788 5.1C402.908 8.21999 404.468 12.6 404.468 18.24V34.08H383.588V21.12C383.588 19.2 383.228 17.94 382.508 17.34C381.908 16.62 380.588 16.26 378.548 16.26H371.708C369.668 16.26 368.288 16.62 367.568 17.34C366.848 17.94 366.488 19.2 366.488 21.12V43.98C366.488 45.78 366.848 47.04 367.568 47.76C368.288 48.48 369.668 48.84 371.708 48.84H385.928C392.768 48.84 397.628 50.4 400.508 53.52C403.388 56.52 404.828 60.84 404.828 66.48V96.18C404.828 101.82 403.268 106.2 400.148 109.32C397.148 112.44 392.168 114 385.208 114H365.768C358.808 114 353.768 112.44 350.648 109.32C347.648 106.2 346.148 101.82 346.148 96.18V80.52H366.848V93.3C366.848 95.1 367.208 96.36 367.928 97.08C368.648 97.8 370.028 98.16 372.068 98.16H378.908C380.828 98.16 382.148 97.8 382.868 97.08C383.588 96.36 383.948 95.1 383.948 93.3ZM442.702 5.27999H463.402V114H442.702V5.27999ZM483.382 0.419992V16.26H422.902V0.419992H483.382ZM555.149 74.76V90.42H512.309V74.76H555.149ZM571.169 114H550.289L533.189 20.4L517.169 114H496.469L519.329 0.419992H547.229L571.169 114ZM632.668 49.56V21.12C632.668 19.2 632.308 17.94 631.588 17.34C630.988 16.62 629.668 16.26 627.628 16.26H596.668V0.419992H633.748C640.708 0.419992 645.688 1.97999 648.688 5.1C651.808 8.21999 653.368 12.6 653.368 18.24V51.9C653.368 57.54 651.808 61.92 648.688 65.04C645.688 68.16 640.708 69.72 633.748 69.72H600.808V54.42H627.628C629.668 54.42 630.988 54.06 631.588 53.34C632.308 52.62 632.668 51.36 632.668 49.56ZM591.988 0.419992H612.688V114H591.988V0.419992ZM616.288 61.62H636.988L659.128 114H636.808L616.288 61.62Z" fill="white"/>
<path d="M196.532 930.34V906.4C196.532 904.48 196.172 903.22 195.452 902.62C194.852 901.9 193.532 901.54 191.492 901.54H163.052V886.42H197.792C204.632 886.42 209.612 887.98 212.732 891.1C215.852 894.22 217.412 898.6 217.412 904.24V930.34H196.532ZM196.532 980.02V926.74H217.412V982.18C217.412 987.82 215.852 992.2 212.732 995.32C209.612 998.44 204.632 1000 197.792 1000H163.052V984.88H191.492C193.532 984.88 194.852 984.58 195.452 983.98C196.172 983.26 196.532 981.94 196.532 980.02ZM154.592 886.42H175.292V1000H154.592V886.42ZM244.824 886.42H265.704V1000H244.824V886.42ZM293.604 933.76V949.78H255.264V933.76H293.604ZM298.824 886.42V902.26H254.184V886.42H298.824ZM300.264 984.16V1000H254.184V984.16H300.264ZM342.928 906.4V980.2C342.928 982 343.288 983.26 344.008 983.98C344.728 984.7 346.048 985.06 347.968 985.06H353.008V1000.18H341.668C334.828 1000.18 329.848 998.62 326.728 995.5C323.608 992.38 322.048 988 322.048 982.36V904.24C322.048 898.6 323.608 894.22 326.728 891.1C329.848 887.98 334.828 886.42 341.668 886.42H353.728V901.54H347.968C346.048 901.54 344.728 901.9 344.008 902.62C343.288 903.22 342.928 904.48 342.928 906.4ZM361.468 924.04V906.4C361.468 904.48 361.108 903.22 360.388 902.62C359.788 901.9 358.468 901.54 356.428 901.54H350.848V886.42H362.728C369.568 886.42 374.548 887.98 377.668 891.1C380.788 894.22 382.348 898.6 382.348 904.24V924.04H361.468ZM361.468 980.2V962.92H382.348V982.36C382.348 988 380.788 992.38 377.668 995.5C374.548 998.62 369.568 1000.18 362.728 1000.18H350.848V985.06H356.428C358.468 985.06 359.788 984.7 360.388 983.98C361.108 983.26 361.468 982 361.468 980.2ZM407.752 886.42H428.632V1000H407.752V886.42ZM456.532 933.76V949.78H418.192V933.76H456.532ZM461.752 886.42V902.26H417.112V886.42H461.752ZM463.192 984.16V1000H417.112V984.16H463.192ZM526.556 937.54V907.12C526.556 905.2 526.196 903.94 525.476 903.34C524.876 902.62 523.556 902.26 521.516 902.26H490.556V886.42H527.636C534.596 886.42 539.576 887.98 542.576 891.1C545.696 894.22 547.256 898.6 547.256 904.24V940.42C547.256 946.06 545.696 950.44 542.576 953.56C539.576 956.68 534.596 958.24 527.636 958.24H494.696V942.4H521.516C523.556 942.4 524.876 942.04 525.476 941.32C526.196 940.6 526.556 939.34 526.556 937.54ZM485.876 886.42H506.576V1000H485.876V886.42ZM583.443 891.28H604.143V1000H583.443V891.28ZM624.123 886.42V902.26H563.643V886.42H624.123ZM645.49 886.42H666.19V1000H645.49V886.42ZM735.068 956.26V907.12C735.068 905.2 734.708 903.94 733.988 903.34C733.388 902.62 732.068 902.26 730.028 902.26H723.908V886.42H736.148C743.108 886.42 748.088 887.98 751.088 891.1C754.208 894.22 755.768 898.6 755.768 904.24V956.26H735.068ZM735.068 979.3V950.14H755.768V982.18C755.768 987.82 754.208 992.2 751.088 995.32C748.088 998.44 743.108 1000 736.148 1000H723.188V984.16H730.028C732.068 984.16 733.388 983.8 733.988 983.08C734.708 982.36 735.068 981.1 735.068 979.3ZM715.268 907.12V956.26H694.568V904.24C694.568 898.6 696.128 894.22 699.248 891.1C702.368 887.98 707.348 886.42 714.188 886.42H726.428V902.26H720.488C718.448 902.26 717.068 902.62 716.348 903.34C715.628 903.94 715.268 905.2 715.268 907.12ZM715.268 949.24V979.3C715.268 981.1 715.628 982.36 716.348 983.08C717.068 983.8 718.448 984.16 720.488 984.16H726.248V1000H714.188C707.348 1000 702.368 998.44 699.248 995.32C696.128 992.2 694.568 987.82 694.568 982.18V949.24H715.268ZM827.176 886.42H846.076V1000H826.636L802.336 924.76V1000H783.256V886.42H803.236L827.176 960.58V886.42Z" fill="white"/>
<path fill-rule="evenodd" clip-rule="evenodd" d="M189.518 425.289L192.756 422.052L211.472 491.901L192.756 561.75L189.518 558.513C172.338 541.332 163.181 519.166 162.047 496.672L180.998 492.882C182.07 492.667 182.07 491.135 180.998 490.92L162.047 487.13C163.181 464.636 172.338 442.47 189.518 425.289ZM189.162 408.639L181.015 416.786C161.499 436.302 151.164 461.522 150.01 487.079L130.804 490.92C129.732 491.135 129.732 492.667 130.804 492.882L150.01 496.723C151.164 522.28 161.499 547.5 181.015 567.016L189.162 575.163L186.18 586.292C179.037 612.951 182.696 639.96 194.476 662.671L179.763 675.6C178.942 676.322 179.708 677.649 180.744 677.299L199.297 671.022C213.076 692.579 234.636 709.253 261.295 716.396L272.424 719.378L275.406 730.507C282.549 757.166 299.223 778.727 320.78 792.505L314.503 811.058C314.153 812.094 315.48 812.86 316.202 812.039L329.131 797.327C351.842 809.106 378.851 812.766 405.51 805.622L416.639 802.64L424.786 810.787C444.302 830.303 469.522 840.638 495.079 841.792L498.92 860.998C499.135 862.07 500.667 862.07 500.882 860.998L504.723 841.792C530.28 840.638 555.5 830.303 575.016 810.787L583.163 802.64L594.292 805.622C620.952 812.765 647.96 809.106 670.671 797.326L683.6 812.039C684.322 812.86 685.649 812.094 685.299 811.058L679.022 792.505C700.579 778.727 717.253 757.166 724.396 730.507L727.378 719.378L738.507 716.396C765.166 709.253 786.726 692.579 800.505 671.022L819.058 677.299C820.094 677.649 820.86 676.322 820.039 675.6L805.326 662.671C817.106 639.96 820.766 612.952 813.622 586.292L810.64 575.163L818.787 567.016C838.303 547.5 848.638 522.28 849.792 496.723L868.998 492.882C870.07 492.667 870.07 491.135 868.998 490.92L849.792 487.079C848.638 461.522 838.303 436.301 818.787 416.786L810.64 408.639L813.622 397.51C820.766 370.851 817.106 343.842 805.327 321.131L820.039 308.202C820.86 307.48 820.094 306.153 819.058 306.503L800.505 312.78C786.727 291.223 765.166 274.549 738.507 267.406L727.378 264.424L724.396 253.295C717.253 226.636 700.579 205.076 679.022 191.297L685.299 172.744C685.649 171.708 684.322 170.942 683.6 171.763L670.671 186.476C647.96 174.696 620.951 171.037 594.292 178.18L583.163 181.162L575.016 173.015C555.5 153.499 530.28 143.164 504.723 142.01L500.882 122.804C500.667 121.732 499.135 121.732 498.92 122.804L495.079 142.01C469.522 143.164 444.302 153.499 424.786 173.015L416.639 181.162L405.51 178.18C378.851 171.036 351.842 174.696 329.131 186.475L316.202 171.763C315.48 170.942 314.153 171.708 314.503 172.744L320.78 191.297C299.223 205.075 282.549 226.636 275.406 253.295L272.424 264.424L261.295 267.406C234.636 274.549 213.075 291.223 199.297 312.78L180.744 306.503C179.708 306.153 178.942 307.48 179.763 308.202L194.475 321.131C182.696 343.842 179.036 370.851 186.18 397.51L189.162 408.639ZM217.697 468.669L202.575 412.233L243.889 370.919L217.697 468.669ZM197.796 394.397L198.981 398.82L250.114 347.686L268.83 277.837L264.408 279.022C240.939 285.311 221.925 299.928 209.696 318.842L224.213 331.6C225.034 332.322 224.268 333.649 223.233 333.299L204.926 327.106C194.66 347.153 191.507 370.928 197.796 394.397ZM730.972 705.965L735.394 704.78C758.863 698.491 777.877 683.874 790.106 664.96L775.589 652.202C774.768 651.48 775.534 650.153 776.569 650.503L794.876 656.696C805.142 636.649 808.295 612.874 802.006 589.405L800.821 584.982L749.688 636.115L730.972 705.965ZM717.559 709.559L661.123 724.681L732.681 653.123L717.559 709.559ZM713.965 722.972L712.78 727.394C706.491 750.863 691.874 769.877 672.96 782.106L660.202 767.589C659.48 766.768 658.153 767.534 658.503 768.569L664.696 786.876C644.649 797.142 620.874 800.295 597.405 794.006L592.982 792.821L644.115 741.688L713.965 722.972ZM637.89 730.906L738.906 629.89L775.88 491.901L738.906 353.911L637.89 252.896L499.901 215.922L361.911 252.896L260.896 353.911L223.922 491.901L260.896 629.89L361.911 730.906L499.901 767.88L637.89 730.906ZM797.227 571.569L755.913 612.883L782.105 515.133L797.227 571.569ZM810.284 558.513L807.046 561.75L788.33 491.901L807.046 422.052L810.284 425.289C827.464 442.47 836.621 464.636 837.755 487.13L818.804 490.92C817.732 491.135 817.732 492.667 818.804 492.882L837.755 496.672C836.621 519.166 827.464 541.332 810.284 558.513ZM782.105 468.669L797.227 412.233L755.913 370.919L782.105 468.669ZM802.006 394.397L800.821 398.82L749.688 347.686L730.972 277.837L735.394 279.022C758.864 285.311 777.877 299.928 790.106 318.842L775.589 331.6C774.768 332.322 775.534 333.649 776.569 333.299L794.877 327.106C805.142 347.153 808.295 370.928 802.006 394.397ZM661.123 259.121L732.681 330.679L717.559 274.243L661.123 259.121ZM712.78 256.408L713.965 260.83L644.116 242.114L592.983 190.981L597.405 189.796C620.874 183.507 644.648 186.66 664.696 196.926L658.503 215.233C658.153 216.268 659.48 217.034 660.202 216.213L672.96 201.696C691.874 213.925 706.491 232.939 712.78 256.408ZM620.883 235.889L579.569 194.575L523.134 209.697L620.883 235.889ZM566.513 181.518L569.75 184.756L499.901 203.472L430.052 184.756L433.289 181.518C450.47 164.338 472.636 155.181 495.13 154.047L498.92 172.998C499.135 174.07 500.667 174.07 500.882 172.998L504.672 154.047C527.166 155.181 549.332 164.338 566.513 181.518ZM476.669 209.697L420.233 194.575L378.919 235.889L476.669 209.697ZM406.82 190.981L355.686 242.114L285.837 260.83L287.022 256.408C293.311 232.939 307.928 213.925 326.842 201.696L339.6 216.213C340.322 217.034 341.649 216.268 341.299 215.233L335.106 196.926C355.154 186.66 378.928 183.507 402.397 189.796L406.82 190.981ZM338.679 259.121L282.243 274.243L267.121 330.679L338.679 259.121ZM217.697 515.134L202.575 571.569L243.889 612.883L217.697 515.134ZM338.679 724.681L267.121 653.123L282.243 709.559L338.679 724.681ZM268.83 705.965L250.114 636.116L198.981 584.983L197.796 589.405C191.507 612.874 194.66 636.648 204.926 656.696L223.233 650.503C224.268 650.153 225.034 651.48 224.213 652.202L209.696 664.96C221.925 683.874 240.939 698.491 264.408 704.78L268.83 705.965ZM285.837 722.972L355.686 741.688L406.82 792.821L402.397 794.006C378.928 800.295 355.153 797.142 335.106 786.877L341.299 768.569C341.649 767.534 340.322 766.768 339.6 767.589L326.842 782.106C307.928 769.877 293.311 750.864 287.022 727.394L285.837 722.972ZM420.233 789.227L378.919 747.913L476.669 774.105L420.233 789.227ZM430.052 799.046L499.901 780.33L569.75 799.046L566.513 802.284C549.332 819.464 527.166 828.621 504.672 829.755L500.882 810.804C500.667 809.732 499.135 809.732 498.92 810.804L495.13 829.755C472.636 828.621 450.47 819.464 433.289 802.284L430.052 799.046ZM579.569 789.227L523.133 774.105L620.883 747.913L579.569 789.227Z" fill="white"/>
<path d="M600 318.795L673.205 392L700 492L673.205 592L600 665.205L500 692L400 665.205L326.795 592L300 492L326.795 392L400 318.795L500 292L600 318.795ZM498.569 427.22C495.873 446.479 494.148 458.805 490.104 467.484C481.528 465.592 472.622 461.26 462.5 454.5C469.262 464.62 473.596 473.526 475.489 482.103C466.81 486.147 454.483 487.873 435.221 490.569L425 492L435.221 493.431C454.476 496.126 466.8 497.852 475.479 501.893C473.583 510.449 469.261 519.361 462.5 529.5C472.638 522.737 481.549 518.415 490.107 516.521C494.149 525.2 495.874 537.525 498.569 556.78L500 567L501.431 556.78C504.127 537.52 505.853 525.194 509.896 516.515C518.473 518.408 527.379 522.741 537.5 529.5C530.738 519.38 526.405 510.474 524.512 501.897C533.191 497.853 545.518 496.127 564.78 493.431L575 492L564.78 490.569C545.525 487.874 533.201 486.148 524.522 482.107C526.418 473.551 530.739 464.639 537.5 454.5C527.361 461.26 518.449 465.582 509.892 467.476C505.851 458.797 504.127 446.473 501.432 427.22L500 417L498.569 427.22Z" fill="white"/>
</g>
<defs>
<clipPath id="clip0_5_2">
<rect width="1000" height="1000" fill="white"/>
</clipPath>
</defs>
</svg>
