<svg width="479" height="112" viewBox="0 0 479 112" fill="none" xmlns="http://www.w3.org/2000/svg">
<g filter="url(#filter0_d_1_62)">
<rect x="10" y="5" width="459" height="92" rx="5" fill="black" fill-opacity="0.35" shape-rendering="crispEdges"/>
<rect x="11" y="6" width="457" height="90" rx="4" stroke="white" stroke-opacity="0.3" stroke-width="2" shape-rendering="crispEdges"/>
</g>
<path d="M65.3856 63H48.5856V46.2L51.9456 42.84H48.5856V39.48H65.3856V42.84H52.4256V52.44L55.3056 49.56H65.3856V52.92H52.4256V59.64H65.3856V63ZM88.4256 63H85.0656V49.08H74.9856V63H71.6256V46.2H74.9856V48.6L77.3856 46.2H85.0656C85.9936 46.2 86.7776 46.536 87.4176 47.208C88.0896 47.848 88.4256 48.632 88.4256 49.56V63ZM106.197 63H99.4769C98.5489 63 97.7489 62.68 97.0769 62.04C96.4369 61.368 96.1169 60.568 96.1169 59.64V49.08H91.3169L94.1969 46.2H96.1169V42.84L99.4769 39.48V46.2H106.197V49.08H99.4769V60.12H106.197V63ZM124.441 52.92H121.081V49.08H114.361V63H111.001V46.2H114.361V48.6L116.761 46.2H121.081C122.009 46.2 122.793 46.536 123.433 47.208C124.105 47.848 124.441 48.632 124.441 49.56V52.92ZM146.504 63H133.064C132.136 63 131.336 62.68 130.664 62.04C130.024 61.368 129.704 60.568 129.704 59.64V49.56C129.704 48.632 130.024 47.848 130.664 47.208C131.336 46.536 132.136 46.2 133.064 46.2H143.144C144.072 46.2 144.856 46.536 145.496 47.208C146.168 47.848 146.504 48.632 146.504 49.56V52.92L143.144 56.28H133.544L136.424 53.4H143.144V49.08H133.064V60.12H146.504V63ZM165.222 52.92H161.862V49.08H155.142V63H151.782V46.2H155.142V48.6L157.542 46.2H161.862C162.79 46.2 163.574 46.536 164.214 47.208C164.886 47.848 165.222 48.632 165.222 49.56V52.92ZM196.894 63H193.534V60.6L191.134 63H183.454C182.526 63 181.726 62.68 181.054 62.04C180.414 61.368 180.094 60.568 180.094 59.64V49.56C180.094 48.632 180.414 47.848 181.054 47.208C181.726 46.536 182.526 46.2 183.454 46.2H193.534V38.52L196.894 35.16V63ZM193.534 60.12V46.68L191.134 49.08H183.454V60.12H193.534ZM220.174 63H216.814V60.552L213.934 63H206.734C205.806 63 205.006 62.68 204.334 62.04C203.694 61.368 203.374 60.568 203.374 59.64V56.28C203.374 55.352 203.694 54.568 204.334 53.928C205.006 53.256 205.806 52.92 206.734 52.92H216.334L213.454 55.752H206.734V60.12H216.814V49.08H203.374L206.254 46.2H216.814C217.742 46.2 218.526 46.536 219.166 47.208C219.838 47.848 220.174 48.632 220.174 49.56V63ZM243.676 63H240.316V49.08H230.236V63H226.876V46.2H230.236V48.6L232.636 46.2H240.316C241.244 46.2 242.028 46.536 242.668 47.208C243.34 47.848 243.676 48.632 243.676 49.56V63ZM264.087 46.2L261.159 49.08H253.047V52.92H259.767C260.695 52.92 261.479 53.256 262.119 53.928C262.791 54.568 263.127 55.352 263.127 56.28V59.64C263.127 60.568 262.791 61.368 262.119 62.04C261.479 62.68 260.695 63 259.767 63H249.687V60.12H259.767V55.8H253.047C252.119 55.8 251.319 55.48 250.647 54.84C250.007 54.168 249.687 53.368 249.687 52.44V49.56C249.687 48.632 250.007 47.848 250.647 47.208C251.319 46.536 252.119 46.2 253.047 46.2H264.087ZM282.559 63H279.199V38.52L282.559 35.16V63ZM294.15 43.32L291.27 46.68V39.48H289.35V35.64H290.79C291.718 35.64 292.502 35.976 293.142 36.648C293.814 37.288 294.15 38.072 294.15 39V43.32ZM318.113 63H314.753V60.6L312.353 63H304.673C303.745 63 302.945 62.68 302.273 62.04C301.633 61.368 301.313 60.568 301.313 59.64V46.2H304.673V60.12H314.753V46.2H318.113V63ZM341.644 63H338.284V49.08H328.204V63H324.844V46.2H328.204V48.6L330.604 46.2H338.284C339.212 46.2 339.996 46.536 340.636 47.208C341.308 47.848 341.644 48.632 341.644 49.56V63ZM351.736 43.32H348.376V39.48H351.736V43.32ZM351.736 63H348.376V48.6L351.736 45.24V63ZM374.054 46.2L367.526 63H362.63L356.294 46.2H360.134L364.694 60.216H365.654L370.214 46.2H374.054ZM395.41 63H381.97C381.042 63 380.242 62.68 379.57 62.04C378.93 61.368 378.61 60.568 378.61 59.64V49.56C378.61 48.632 378.93 47.848 379.57 47.208C380.242 46.536 381.042 46.2 381.97 46.2H392.05C392.978 46.2 393.762 46.536 394.402 47.208C395.074 47.848 395.41 48.632 395.41 49.56V52.92L392.05 56.28H382.45L385.33 53.4H392.05V49.08H381.97V60.12H395.41V63ZM414.128 52.92H410.768V49.08H404.048V63H400.688V46.2H404.048V48.6L406.448 46.2H410.768C411.696 46.2 412.48 46.536 413.12 47.208C413.792 47.848 414.128 48.632 414.128 49.56V52.92ZM433.071 46.2L430.143 49.08H422.031V52.92H428.751C429.679 52.92 430.463 53.256 431.103 53.928C431.775 54.568 432.111 55.352 432.111 56.28V59.64C432.111 60.568 431.775 61.368 431.103 62.04C430.463 62.68 429.679 63 428.751 63H418.671V60.12H428.751V55.8H422.031C421.103 55.8 420.303 55.48 419.631 54.84C418.991 54.168 418.671 53.368 418.671 52.44V49.56C418.671 48.632 418.991 47.848 419.631 47.208C420.303 46.536 421.103 46.2 422.031 46.2H433.071Z" fill="white"/>
<defs>
<filter id="filter0_d_1_62" x="0" y="0" width="479" height="112" filterUnits="userSpaceOnUse" color-interpolation-filters="sRGB">
<feFlood flood-opacity="0" result="BackgroundImageFix"/>
<feColorMatrix in="SourceAlpha" type="matrix" values="0 0 0 0 0 0 0 0 0 0 0 0 0 0 0 0 0 0 127 0" result="hardAlpha"/>
<feOffset dy="5"/>
<feGaussianBlur stdDeviation="5"/>
<feComposite in2="hardAlpha" operator="out"/>
<feColorMatrix type="matrix" values="0 0 0 0 0.694118 0 0 0 0 0.694118 0 0 0 0 0.694118 0 0 0 0.15 0"/>
<feBlend mode="normal" in2="BackgroundImageFix" result="effect1_dropShadow_1_62"/>
<feBlend mode="normal" in="SourceGraphic" in2="effect1_dropShadow_1_62" result="shape"/>
</filter>
</defs>
</svg>
