<svg width="374" height="112" viewBox="0 0 374 112" fill="none" xmlns="http://www.w3.org/2000/svg">
<g filter="url(#filter0_d_1_17)">
<rect x="10" y="5" width="354" height="92" rx="5" fill="black" fill-opacity="0.35" shape-rendering="crispEdges"/>
<rect x="11" y="6" width="352" height="90" rx="4" stroke="white" stroke-opacity="0.3" stroke-width="2" shape-rendering="crispEdges"/>
</g>
<path d="M113.412 59.64C113.412 60.568 113.076 61.368 112.404 62.04C111.764 62.68 110.98 63 110.052 63H96.6119C95.6839 63 94.8839 62.68 94.2119 62.04C93.5719 61.368 93.2519 60.568 93.2519 59.64V42.84C93.2519 41.912 93.5719 41.128 94.2119 40.488C94.8839 39.816 95.6839 39.48 96.6119 39.48H110.052C110.98 39.48 111.764 39.816 112.404 40.488C113.076 41.128 113.412 41.912 113.412 42.84V46.2H109.572V42.84H97.0919V59.64H109.572V56.28H113.412V59.64ZM136.473 59.64C136.473 60.568 136.137 61.368 135.465 62.04C134.825 62.68 134.041 63 133.113 63H123.033C122.105 63 121.305 62.68 120.633 62.04C119.993 61.368 119.673 60.568 119.673 59.64V49.56C119.673 48.632 119.993 47.848 120.633 47.208C121.305 46.536 122.105 46.2 123.033 46.2H133.113C134.041 46.2 134.825 46.536 135.465 47.208C136.137 47.848 136.473 48.632 136.473 49.56V59.64ZM133.113 60.12V49.08H123.033V60.12H133.113ZM160.004 63H156.644V49.08H146.564V63H143.204V46.2H146.564V48.6L148.964 46.2H156.644C157.572 46.2 158.356 46.536 158.996 47.208C159.668 47.848 160.004 48.632 160.004 49.56V63ZM183.535 63H180.175V49.08H170.095V63H166.735V46.2H170.095V48.6L172.495 46.2H180.175C181.103 46.2 181.887 46.536 182.527 47.208C183.199 47.848 183.535 48.632 183.535 49.56V63ZM207.066 63H193.626C192.698 63 191.898 62.68 191.226 62.04C190.586 61.368 190.266 60.568 190.266 59.64V49.56C190.266 48.632 190.586 47.848 191.226 47.208C191.898 46.536 192.698 46.2 193.626 46.2H203.706C204.634 46.2 205.418 46.536 206.058 47.208C206.73 47.848 207.066 48.632 207.066 49.56V52.92L203.706 56.28H194.106L196.986 53.4H203.706V49.08H193.626V60.12H207.066V63ZM227.224 63H223.096L218.536 56.376H218.056L213.496 63H209.464L216.136 54.168L209.944 46.2H213.976L218.152 52.152H218.632L222.616 46.2H226.744L220.456 54.168L227.224 63ZM234.408 43.32H231.048V39.48H234.408V43.32ZM234.408 63H231.048V48.6L234.408 45.24V63ZM257.926 59.64C257.926 60.568 257.59 61.368 256.918 62.04C256.278 62.68 255.494 63 254.566 63H244.486C243.558 63 242.758 62.68 242.086 62.04C241.446 61.368 241.126 60.568 241.126 59.64V49.56C241.126 48.632 241.446 47.848 242.086 47.208C242.758 46.536 243.558 46.2 244.486 46.2H254.566C255.494 46.2 256.278 46.536 256.918 47.208C257.59 47.848 257.926 48.632 257.926 49.56V59.64ZM254.566 60.12V49.08H244.486V60.12H254.566ZM281.457 63H278.097V49.08H268.017V63H264.657V46.2H268.017V48.6L270.417 46.2H278.097C279.025 46.2 279.809 46.536 280.449 47.208C281.121 47.848 281.457 48.632 281.457 49.56V63Z" fill="white"/>
<defs>
<filter id="filter0_d_1_17" x="0" y="0" width="374" height="112" filterUnits="userSpaceOnUse" color-interpolation-filters="sRGB">
<feFlood flood-opacity="0" result="BackgroundImageFix"/>
<feColorMatrix in="SourceAlpha" type="matrix" values="0 0 0 0 0 0 0 0 0 0 0 0 0 0 0 0 0 0 127 0" result="hardAlpha"/>
<feOffset dy="5"/>
<feGaussianBlur stdDeviation="5"/>
<feComposite in2="hardAlpha" operator="out"/>
<feColorMatrix type="matrix" values="0 0 0 0 0.694118 0 0 0 0 0.694118 0 0 0 0 0.694118 0 0 0 0.15 0"/>
<feBlend mode="normal" in2="BackgroundImageFix" result="effect1_dropShadow_1_17"/>
<feBlend mode="normal" in="SourceGraphic" in2="effect1_dropShadow_1_17" result="shape"/>
</filter>
</defs>
</svg>
