<svg width="728" height="120" viewBox="0 0 728 120" fill="none" xmlns="http://www.w3.org/2000/svg">
<g filter="url(#filter0_d_1_12)">
<path d="M60.76 69.04C60.76 71.5147 59.864 73.648 58.072 75.44C56.3653 77.1467 54.2747 78 51.8 78H15.96V69.04H50.52V51.12H24.92C22.4453 51.12 20.312 50.2667 18.52 48.56C16.8133 46.768 15.96 44.6347 15.96 42.16V24.24C15.96 21.7653 16.8133 19.6747 18.52 17.968C20.312 16.176 22.4453 15.28 24.92 15.28H60.76V24.24H26.2V42.16H51.8C54.2747 42.16 56.3653 43.056 58.072 44.848C59.864 46.5547 60.76 48.6453 60.76 51.12V69.04ZM108.15 78H90.23C87.7553 78 85.622 77.1467 83.83 75.44C82.1233 73.648 81.27 71.5147 81.27 69.04V40.88H68.47L76.15 33.2H81.27V24.24L90.23 15.28V33.2H108.15V40.88H90.23V70.32H108.15V78ZM163.84 78H154.88V71.472L147.2 78H128C125.525 78 123.392 77.1467 121.6 75.44C119.893 73.648 119.04 71.5147 119.04 69.04V60.08C119.04 57.6053 119.893 55.5147 121.6 53.808C123.392 52.016 125.525 51.12 128 51.12H153.6L145.92 58.672H128V70.32H154.88V40.88H119.04L126.72 33.2H154.88C157.355 33.2 159.445 34.096 161.152 35.888C162.944 37.5947 163.84 39.6853 163.84 42.16V78ZM217.55 51.12H208.59V40.88H190.67V78H181.71V33.2H190.67V39.6L197.07 33.2H208.59C211.065 33.2 213.155 34.096 214.862 35.888C216.654 37.5947 217.55 39.6853 217.55 42.16V51.12ZM287.905 69.04C287.905 71.4293 287.009 73.52 285.217 75.312C283.425 77.104 281.334 78 278.945 78H234.145V33.2L243.105 24.24H234.145V15.28H278.945C281.334 15.28 283.425 16.176 285.217 17.968C287.009 19.76 287.905 21.8507 287.905 24.24V69.04ZM277.665 69.04V24.24H244.385V76.72L252.065 69.04H277.665ZM352.51 78H316.67C314.195 78 312.062 77.1467 310.27 75.44C308.563 73.648 307.71 71.5147 307.71 69.04V42.16C307.71 39.6853 308.563 37.5947 310.27 35.888C312.062 34.096 314.195 33.2 316.67 33.2H343.55C346.025 33.2 348.115 34.096 349.822 35.888C351.614 37.5947 352.51 39.6853 352.51 42.16V51.12L343.55 60.08H317.95L325.63 52.4H343.55V40.88H316.67V70.32H352.51V78ZM404.985 33.2L397.177 40.88H375.545V70.32H402.425V78H375.545C373.07 78 370.937 77.1467 369.145 75.44C367.438 73.648 366.585 71.5147 366.585 69.04V42.16C366.585 39.6853 367.438 37.5947 369.145 35.888C370.937 34.096 373.07 33.2 375.545 33.2H404.985ZM458.76 78H422.92C420.445 78 418.312 77.1467 416.52 75.44C414.813 73.648 413.96 71.5147 413.96 69.04V42.16C413.96 39.6853 414.813 37.5947 416.52 35.888C418.312 34.096 420.445 33.2 422.92 33.2H449.8C452.275 33.2 454.365 34.096 456.072 35.888C457.864 37.5947 458.76 39.6853 458.76 42.16V51.12L449.8 60.08H424.2L431.88 52.4H449.8V40.88H422.92V70.32H458.76V78ZM517.635 69.04C517.635 71.5147 516.739 73.648 514.947 75.44C513.24 77.1467 511.15 78 508.675 78H481.795V104.88H472.835V33.2H481.795V39.6L488.195 33.2H508.675C511.15 33.2 513.24 34.096 514.947 35.888C516.739 37.5947 517.635 39.6853 517.635 42.16V69.04ZM508.675 70.32V40.88H481.795V76.72L488.195 70.32H508.675ZM565.025 78H547.105C544.63 78 542.497 77.1467 540.705 75.44C538.998 73.648 538.145 71.5147 538.145 69.04V40.88H525.345L533.025 33.2H538.145V24.24L547.105 15.28V33.2H565.025V40.88H547.105V70.32H565.025V78ZM586.795 25.52H577.835V15.28H586.795V25.52ZM586.795 78H577.835V39.6L586.795 30.64V78ZM649.51 69.04C649.51 71.5147 648.614 73.648 646.822 75.44C645.115 77.1467 643.025 78 640.55 78H613.67C611.195 78 609.062 77.1467 607.27 75.44C605.563 73.648 604.71 71.5147 604.71 69.04V42.16C604.71 39.6853 605.563 37.5947 607.27 35.888C609.062 34.096 611.195 33.2 613.67 33.2H640.55C643.025 33.2 645.115 34.096 646.822 35.888C648.614 37.5947 649.51 39.6853 649.51 42.16V69.04ZM640.55 70.32V40.88H613.67V70.32H640.55ZM712.26 78H703.3V40.88H676.42V78H667.46V33.2H676.42V39.6L682.82 33.2H703.3C705.775 33.2 707.865 34.096 709.572 35.888C711.364 37.5947 712.26 39.6853 712.26 42.16V78Z" fill="white"/>
</g>
<defs>
<filter id="filter0_d_1_12" x="0.960022" y="0.280029" width="726.3" height="119.6" filterUnits="userSpaceOnUse" color-interpolation-filters="sRGB">
<feFlood flood-opacity="0" result="BackgroundImageFix"/>
<feColorMatrix in="SourceAlpha" type="matrix" values="0 0 0 0 0 0 0 0 0 0 0 0 0 0 0 0 0 0 127 0" result="hardAlpha"/>
<feOffset/>
<feGaussianBlur stdDeviation="7.5"/>
<feComposite in2="hardAlpha" operator="out"/>
<feColorMatrix type="matrix" values="0 0 0 0 1 0 0 0 0 1 0 0 0 0 1 0 0 0 0.75 0"/>
<feBlend mode="normal" in2="BackgroundImageFix" result="effect1_dropShadow_1_12"/>
<feBlend mode="normal" in="SourceGraphic" in2="effect1_dropShadow_1_12" result="shape"/>
</filter>
</defs>
</svg>
