<svg width="63" height="65" viewBox="0 0 63 65" fill="none" xmlns="http://www.w3.org/2000/svg">
<g filter="url(#filter0_d_1_31)">
<path d="M29.6619 49.5331C28.1489 49.5331 26.8727 48.4065 26.685 46.9052L26.3613 44.3147C26.2141 43.1369 25.3747 42.1743 24.3101 41.6497C24.0641 41.5285 23.8132 41.3967 23.5572 41.2543C23.273 41.0963 23.0019 40.9347 22.7439 40.7697C21.7581 40.1391 20.5246 39.9067 19.4477 40.3647L17.0653 41.378C15.6672 41.9726 14.0454 41.4282 13.2892 40.1106L11.3174 36.6749C10.5647 35.3633 10.9058 33.6966 12.1132 32.7862L14.5917 30.9174C15.2761 30.4014 15.6092 29.5494 15.524 28.6966C15.4761 28.2224 15.4522 27.7616 15.4522 27.3142C15.4522 26.8985 15.4761 26.4617 15.524 26.0036C15.6232 25.0444 15.2295 24.0966 14.4595 23.516L12.1242 21.7553C10.9121 20.8413 10.5737 19.1659 11.3361 17.8531L13.289 14.4908C14.047 13.1857 15.6566 12.6469 17.0475 13.2327L19.4851 14.2592C20.5181 14.6942 21.6958 14.4984 22.6304 13.8795C22.9335 13.6788 23.2449 13.4864 23.5647 13.3023C23.8255 13.1521 24.0841 13.0123 24.3406 12.8829C25.3667 12.365 26.1668 11.432 26.3168 10.2925L26.6701 7.60844C26.8666 6.11582 28.139 5 29.6445 5H33.5937C35.1076 5 36.3843 6.12797 36.5708 7.63035L36.9096 10.3586C37.0499 11.4887 37.8323 12.4136 38.8535 12.9177C39.1333 13.0559 39.3997 13.1999 39.6529 13.35C39.9197 13.5081 40.1895 13.6807 40.4621 13.8679C41.3807 14.4983 42.5468 14.7032 43.5779 14.2812L46.2248 13.1979C47.6109 12.6306 49.2031 13.1725 49.9553 14.4676L51.9215 17.8529C52.684 19.1658 52.3455 20.8413 51.1332 21.7552L48.5024 23.7385C47.8135 24.2578 47.559 25.1414 47.5915 26.0036C47.6072 26.4299 47.615 26.8509 47.615 27.2666C47.615 27.6505 47.5992 28.0556 47.5674 28.4819C47.4963 29.4373 47.834 30.3948 48.6005 30.9695L51.0251 32.7875C52.2374 33.6965 52.5816 35.3669 51.8274 36.6811L49.8648 40.1006C49.1061 41.4225 47.4769 41.9654 46.0769 41.3629L43.5992 40.2966C42.5581 39.8485 41.3665 40.0453 40.4304 40.6845C40.1457 40.879 39.8603 41.0611 39.5743 41.2308C39.3553 41.3608 39.1337 41.4832 38.9096 41.598C37.8686 42.1312 37.0463 43.073 36.9022 44.2337L36.5708 46.9028C36.3843 48.4052 35.1076 49.5331 33.5937 49.5331H29.6619ZM28.8622 44.6388C29.0292 46.0201 30.2014 47.0591 31.5927 47.0591C32.9681 47.0591 34.132 46.0431 34.3178 44.6803L34.6366 42.3428C34.8003 41.1422 35.6836 40.1881 36.8029 39.724C37.3198 39.5097 37.8098 39.269 38.273 39.0017C38.7845 38.7066 39.3008 38.3554 39.8218 37.9481C40.7734 37.2042 42.0432 36.9428 43.1543 37.4165L45.2628 38.3156C46.5365 38.8587 48.0154 38.3698 48.7144 37.1745C49.4193 35.9693 49.1089 34.4271 47.9926 33.5884L46.1265 32.1863C45.1701 31.4677 44.8118 30.2372 44.9461 29.0485C45.0125 28.4568 45.0457 27.8628 45.0457 27.2666C45.0457 26.6386 45.0125 26.0446 44.9461 25.4846C44.8112 24.3545 45.1409 23.1799 46.0489 22.4938L48.0884 20.9527C49.2052 20.1089 49.5141 18.5631 48.8075 17.3549C48.1086 16.1599 46.6329 15.6669 45.3561 16.2019L43.2245 17.095C42.0542 17.5853 40.715 17.2623 39.6952 16.5075C39.2762 16.1973 38.818 15.8957 38.3206 15.6026C37.836 15.3171 37.3617 15.0698 36.8978 14.8607C35.7236 14.3315 34.7621 13.3113 34.6175 12.0315L34.3801 9.92902C34.2223 8.53077 33.0395 7.47406 31.6324 7.47406C30.2283 7.47406 29.0471 8.5263 28.8855 9.92103L28.6462 11.987C28.4981 13.2652 27.5345 14.2697 26.3406 14.7494C25.8626 14.9414 25.4026 15.1625 24.9607 15.4127C24.4195 15.719 23.8798 16.0846 23.3415 16.5097C22.3859 17.2642 21.1085 17.5438 19.9855 17.0736L17.895 16.1984C16.6219 15.6654 15.1508 16.157 14.4541 17.3484C13.7463 18.5585 14.0606 20.1072 15.184 20.9458L17.0852 22.3649C17.9702 23.0256 18.2842 24.1916 18.1452 25.2873C18.0628 25.9376 18.0215 26.6132 18.0215 27.3142C18.0215 27.9422 18.0628 28.5654 18.1452 29.184C18.2925 30.2883 17.9457 31.4392 17.0607 32.116L15.1507 33.5767C14.0429 34.4239 13.7399 35.9636 14.4439 37.1674C15.1457 38.3673 16.6294 38.8592 17.909 38.3164L19.9223 37.4623C21.0528 36.9827 22.3419 37.267 23.3126 38.0192C23.8055 38.4011 24.3072 38.7366 24.8178 39.0258C25.3123 39.3055 25.8365 39.556 26.3902 39.7772C27.5432 40.2378 28.4491 41.2209 28.5981 42.4535L28.8622 44.6388ZM31.5621 33.4517C33.2877 33.4517 34.7501 32.8522 35.9492 31.6531C37.1479 30.4544 37.7472 28.9922 37.7472 27.2666C37.7472 25.5409 37.1479 24.0787 35.9492 22.8801C34.7501 21.681 33.2877 21.0814 31.5621 21.0814C29.8273 21.0814 28.3627 21.681 27.1681 22.8801C25.974 24.0787 25.3769 25.5409 25.3769 27.2666C25.3769 28.9922 25.974 30.4544 27.1681 31.6531C28.3627 32.8522 29.8273 33.4517 31.5621 33.4517Z" fill="#E3E3E3"/>
</g>
<defs>
<filter id="filter0_d_1_31" x="0.919067" y="0" width="61.4084" height="64.5331" filterUnits="userSpaceOnUse" color-interpolation-filters="sRGB">
<feFlood flood-opacity="0" result="BackgroundImageFix"/>
<feColorMatrix in="SourceAlpha" type="matrix" values="0 0 0 0 0 0 0 0 0 0 0 0 0 0 0 0 0 0 127 0" result="hardAlpha"/>
<feOffset dy="5"/>
<feGaussianBlur stdDeviation="5"/>
<feComposite in2="hardAlpha" operator="out"/>
<feColorMatrix type="matrix" values="0 0 0 0 0.694118 0 0 0 0 0.694118 0 0 0 0 0.694118 0 0 0 0.105882 0"/>
<feBlend mode="normal" in2="BackgroundImageFix" result="effect1_dropShadow_1_31"/>
<feBlend mode="normal" in="SourceGraphic" in2="effect1_dropShadow_1_31" result="shape"/>
</filter>
</defs>
</svg>
