<svg width="374" height="112" viewBox="0 0 374 112" fill="none" xmlns="http://www.w3.org/2000/svg">
<g filter="url(#filter0_d_1_36)">
<rect x="10" y="5" width="354" height="92" rx="5" fill="black" fill-opacity="0.35" shape-rendering="crispEdges"/>
<rect x="11" y="6" width="352" height="90" rx="4" stroke="white" stroke-opacity="0.3" stroke-width="2" shape-rendering="crispEdges"/>
</g>
<path d="M87.6366 59.64C87.6366 60.568 87.3006 61.368 86.6286 62.04C85.9886 62.68 85.2046 63 84.2766 63H70.8366V59.64H83.7966V52.92H74.1966C73.2686 52.92 72.4686 52.6 71.7966 51.96C71.1566 51.288 70.8366 50.488 70.8366 49.56V42.84C70.8366 41.912 71.1566 41.128 71.7966 40.488C72.4686 39.816 73.2686 39.48 74.1966 39.48H87.6366V42.84H74.6766V49.56H84.2766C85.2046 49.56 85.9886 49.896 86.6286 50.568C87.3006 51.208 87.6366 51.992 87.6366 52.92V59.64ZM111.168 63H97.7278C96.7998 63 95.9998 62.68 95.3278 62.04C94.6878 61.368 94.3678 60.568 94.3678 59.64V49.56C94.3678 48.632 94.6878 47.848 95.3278 47.208C95.9998 46.536 96.7998 46.2 97.7278 46.2H107.808C108.736 46.2 109.52 46.536 110.16 47.208C110.832 47.848 111.168 48.632 111.168 49.56V52.92L107.808 56.28H98.2078L101.088 53.4H107.808V49.08H97.7278V60.12H111.168V63ZM140.455 46.2L137.527 49.08H129.415V60.12H139.495V63H129.415C128.487 63 127.687 62.68 127.015 62.04C126.375 61.368 126.055 60.568 126.055 59.64V49.56C126.055 48.632 126.375 47.848 127.015 47.208C127.687 46.536 128.487 46.2 129.415 46.2H140.455ZM160.621 59.64C160.621 60.568 160.285 61.368 159.613 62.04C158.973 62.68 158.189 63 157.261 63H147.181C146.253 63 145.453 62.68 144.781 62.04C144.141 61.368 143.821 60.568 143.821 59.64V49.56C143.821 48.632 144.141 47.848 144.781 47.208C145.453 46.536 146.253 46.2 147.181 46.2H157.261C158.189 46.2 158.973 46.536 159.613 47.208C160.285 47.848 160.621 48.632 160.621 49.56V59.64ZM157.261 60.12V49.08H147.181V60.12H157.261ZM184.152 63H180.792V49.08H170.712V63H167.352V46.2H170.712V48.6L173.112 46.2H180.792C181.72 46.2 182.504 46.536 183.144 47.208C183.816 47.848 184.152 48.632 184.152 49.56V63ZM207.683 63H204.323V49.08H194.243V63H190.883V46.2H194.243V48.6L196.643 46.2H204.323C205.251 46.2 206.035 46.536 206.675 47.208C207.347 47.848 207.683 48.632 207.683 49.56V63ZM231.215 63H217.775C216.847 63 216.047 62.68 215.375 62.04C214.735 61.368 214.415 60.568 214.415 59.64V49.56C214.415 48.632 214.735 47.848 215.375 47.208C216.047 46.536 216.847 46.2 217.775 46.2H227.855C228.783 46.2 229.567 46.536 230.207 47.208C230.879 47.848 231.215 48.632 231.215 49.56V52.92L227.855 56.28H218.255L221.135 53.4H227.855V49.08H217.775V60.12H231.215V63ZM250.893 46.2L247.965 49.08H239.853V60.12H249.933V63H239.853C238.925 63 238.125 62.68 237.453 62.04C236.813 61.368 236.493 60.568 236.493 59.64V49.56C236.493 48.632 236.813 47.848 237.453 47.208C238.125 46.536 238.925 46.2 239.853 46.2H250.893ZM265.298 63H258.578C257.65 63 256.85 62.68 256.178 62.04C255.538 61.368 255.218 60.568 255.218 59.64V49.08H250.418L253.298 46.2H255.218V42.84L258.578 39.48V46.2H265.298V49.08H258.578V60.12H265.298V63ZM286.902 63H273.462C272.534 63 271.734 62.68 271.062 62.04C270.422 61.368 270.102 60.568 270.102 59.64V49.56C270.102 48.632 270.422 47.848 271.062 47.208C271.734 46.536 272.534 46.2 273.462 46.2H283.542C284.47 46.2 285.254 46.536 285.894 47.208C286.566 47.848 286.902 48.632 286.902 49.56V52.92L283.542 56.28H273.942L276.822 53.4H283.542V49.08H273.462V60.12H286.902V63ZM305.62 52.92H302.26V49.08H295.54V63H292.18V46.2H295.54V48.6L297.94 46.2H302.26C303.188 46.2 303.972 46.536 304.612 47.208C305.284 47.848 305.62 48.632 305.62 49.56V52.92Z" fill="white"/>
<defs>
<filter id="filter0_d_1_36" x="0" y="0" width="374" height="112" filterUnits="userSpaceOnUse" color-interpolation-filters="sRGB">
<feFlood flood-opacity="0" result="BackgroundImageFix"/>
<feColorMatrix in="SourceAlpha" type="matrix" values="0 0 0 0 0 0 0 0 0 0 0 0 0 0 0 0 0 0 127 0" result="hardAlpha"/>
<feOffset dy="5"/>
<feGaussianBlur stdDeviation="5"/>
<feComposite in2="hardAlpha" operator="out"/>
<feColorMatrix type="matrix" values="0 0 0 0 0.694118 0 0 0 0 0.694118 0 0 0 0 0.694118 0 0 0 0.15 0"/>
<feBlend mode="normal" in2="BackgroundImageFix" result="effect1_dropShadow_1_36"/>
<feBlend mode="normal" in="SourceGraphic" in2="effect1_dropShadow_1_36" result="shape"/>
</filter>
</defs>
</svg>
